<svg xmlns="http://www.w3.org/2000/svg" width="185" height="68" fill="none" xmlns:v="https://vecta.io/nano"><path d="M37 21h146a2 2 0 0 1 2 2v38a2 2 0 0 1-2 2H37V21z" fill="#008489"/><path d="M68 0h76l6 20H62l6-20z" fill="#f8b34e"/><rect width="36" height="68" rx="2" fill="#4f4f4f"/><g fill="#fff"><rect x="2" y="6" width="32" height="50" rx="2"/><rect width="10" height="4" rx="2" transform="matrix(1 0 0 -1 13 64)"/></g><path d="M23.47 24.584v-.136a6.92 6.92 0 0 1 2.553 1.098 8.45 8.45 0 0 1-2.521 5.118c-1.408 1.362-3.246 2.194-5.199 2.351v-2.614c1.425-.169 2.739-.854 3.692-1.926s1.481-2.457 1.482-3.892m-11.439.001v-.136a6.97 6.97 0 0 0-2.553 1.098c.222 1.948 1.114 3.758 2.524 5.121s3.249 2.193 5.203 2.349v-2.614c-1.426-.167-2.74-.852-3.694-1.925s-1.481-2.458-1.48-3.894" fill="#fab44e"/><path fill-rule="evenodd" d="M21.735 14.349v3.03h-.008a7.82 7.82 0 0 0-8.03 0v-3.03H9.962L17.871 9l7.652 5.349h-1.431v2.522h-.462c-.136 0-.28-.068-.28-.235h-.015v-2.287h-1.599zm4.281 11.196a8.47 8.47 0 0 1-7.72 7.477v19.977h.697c.063.003.126-.017.176-.056s.085-.094.097-.157c1.834-11.092 7.306-15.508 10.039-17.713l.196-.158c0-5.182-1.386-7.886-3.485-9.371zm-14.008 5.12a8.47 8.47 0 0 1-2.522-5.12C7.394 27.029 6 29.734 6 34.916l.182.147c2.735 2.202 8.216 6.613 10.061 17.725.011.063.045.119.096.159s.114.058.177.053h.689V33.022a8.47 8.47 0 0 1-5.198-2.357z" fill="#008489"/><g fill="#fff"><path d="M96.377 40.007c-.77-.483-1.641-.781-2.546-.87a5.87 5.87 0 0 0-2.666.358l-.623.198v-4.358h-2.523v15.366h2.523V43.34a1.32 1.32 0 0 1 1.019-1.46 4.53 4.53 0 0 1 3.003 0 1.25 1.25 0 0 1 .959 1.41v6.474c-.007.126.014.252.06.37a.89.89 0 0 0 .206.313c.09.088.198.157.316.201s.245.062.371.053h1.587v-7.713c.013-.596-.133-1.185-.424-1.706s-.715-.955-1.229-1.258"/><path fill-rule="evenodd" d="M66.874 36.466a1.45 1.45 0 0 1-.401 1.051 1.45 1.45 0 0 1-1.032.448c-.198.007-.395-.025-.579-.095a1.48 1.48 0 0 1-.832-.796 1.48 1.48 0 0 1 .302-1.627c.275-.281.65-.441 1.043-.446a1.48 1.48 0 0 1 1.053.422c.281.275.441.65.446 1.043z"/><path d="M78.339 39.555h-2.138c-.265-.006-.528.043-.772.146a1.88 1.88 0 0 0-.644.449l-3.581 4.992 3.581 4.959c.177.198.396.355.641.458a1.82 1.82 0 0 0 .775.142h2.138l-4.066-5.587 4.066-5.559zm-7.157-4.22h-2.529v15.366h2.529V35.33v.005zM64.125 49.77a.9.9 0 0 0 .059.367.88.88 0 0 0 .203.311.9.9 0 0 0 .313.202c.118.045.242.064.367.057h1.581V39.385h-2.523V49.77zm-3.405-9.763a5.87 5.87 0 0 0-5.212-.512l-.623.198v-4.358h-2.523v15.366h2.529V43.34a1.32 1.32 0 0 1 1.013-1.46 4.53 4.53 0 0 1 3.003 0 1.25 1.25 0 0 1 .959 1.41v6.474c-.006.125.015.25.061.367s.116.222.205.31.196.156.314.2.243.062.368.055h1.581v-7.713a3.36 3.36 0 0 0-1.653-2.964m26.126 6.991v-.11c-.116-.769-.507-1.47-1.102-1.972a4.76 4.76 0 0 0-1.162-.733l-2.81-1.256h.061a.68.68 0 0 1-.209-.241c-.05-.096-.076-.202-.077-.31 0-.178.067-.349.187-.479h0a.22.22 0 0 1 .066-.055h0a.61.61 0 0 1 .182-.094l.204-.05c.16-.034.322-.054.485-.061h.364.231.05.204a10.47 10.47 0 0 1 2.645.551h.055v-2.06c.014-.104.001-.209-.039-.306s-.104-.181-.187-.245a.74.74 0 0 0-.264-.116 9.07 9.07 0 0 0-3.157-.38 8.13 8.13 0 0 0-.942.116c-1.692.309-2.788 1.355-2.986 2.865a2.69 2.69 0 0 0 0 .364 2.82 2.82 0 0 0 .349 1.297c.219.398.53.738.908.99a5.09 5.09 0 0 0 .953.551l2.755 1.218.187.094h.039l.149.094a.92.92 0 0 1 .209 1.163 1.1 1.1 0 0 1-.138.182 1.03 1.03 0 0 1-.501.253H83.5a8.08 8.08 0 0 1-1.03.072 7.54 7.54 0 0 1-3.587-.898v1.829a1.19 1.19 0 0 0 .898 1.212h.088c.947.264 1.926.398 2.909.397h.072c.361-.023.72-.072 1.074-.149.753-.112 1.449-.466 1.983-1.009a3.51 3.51 0 0 0 .976-1.999 4.12 4.12 0 0 0 0-.827m-35.679.102a.75.75 0 0 1 0-.11 3.22 3.22 0 0 0-1.102-1.973 4.68 4.68 0 0 0-1.163-.733l-2.804-1.256h.055c-.08-.058-.147-.133-.196-.219s-.079-.182-.088-.28a.69.69 0 0 1 .036-.292.68.68 0 0 1 .154-.25h0l.066-.055c.057-.041.12-.073.187-.094l.204-.049a2.75 2.75 0 0 1 .485-.061h.358.237.044.209c.9.069 1.787.255 2.639.551h.061v-2.061c.014-.104.001-.209-.039-.306s-.104-.181-.187-.245a.81.81 0 0 0-.27-.116c-1.02-.312-2.087-.44-3.151-.38a7.85 7.85 0 0 0-.942.116c-1.697.309-2.793 1.355-2.992 2.865a2.66 2.66 0 0 0 0 .364 2.8 2.8 0 0 0 .344 1.297c.218.398.529.738.907.989.298.219.62.404.959.551l2.755 1.218.187.094h.033a.98.98 0 0 1 .149.094.9.9 0 0 1 .246.315c.057.122.086.255.085.39 0 .16-.041.318-.121.457a.9.9 0 0 1-.138.182 1.01 1.01 0 0 1-.501.253h-.077a7.96 7.96 0 0 1-1.03.072c-1.251.001-2.484-.307-3.587-.898v1.829a1.19 1.19 0 0 0 .893 1.212h.094a10.79 10.79 0 0 0 2.904.397h.077a7.12 7.12 0 0 0 1.069-.149 3.5 3.5 0 0 0 2.959-3.008 3.8 3.8 0 0 0 0-.826m57.253-7.543v.893a5.78 5.78 0 0 0-7.917.948 5.97 5.97 0 0 0-.077 7.57c.857 1.097 2.082 1.849 3.449 2.116a5.35 5.35 0 0 0 2.396-.029c.787-.191 1.519-.558 2.143-1.073.61.597 1.418.948 2.27.986v-11.41h-2.27.006zm-3.306 9.069c-.45.013-.898-.064-1.318-.227a3.37 3.37 0 0 1-1.125-.723 3.36 3.36 0 0 1-.753-1.105c-.175-.415-.265-.861-.264-1.311a3.4 3.4 0 0 1 5.718-2.416c.643.6 1.029 1.427 1.076 2.305a3.3 3.3 0 0 1-.204 1.324 3.29 3.29 0 0 1-.712 1.135 3.31 3.31 0 0 1-2.418 1.018"/></g><path stroke="#007075" d="M117.5 26v32"/><path d="M77.867 5.41h3.17c.715 0 1.26.055 1.635.164a2.87 2.87 0 0 1 1.295.791c.359.379.633.844.82 1.395s.281 1.223.281 2.027c0 .707-.088 1.316-.264 1.828-.215.625-.522 1.131-.92 1.518-.301.293-.707.521-1.219.686-.383.121-.894.182-1.535.182h-3.264V5.41zm1.734 1.453v5.689h1.295c.484 0 .834-.027 1.049-.082a1.58 1.58 0 0 0 .697-.357c.188-.168.34-.443.457-.826s.176-.912.176-1.576-.059-1.174-.176-1.529-.281-.633-.492-.832a1.65 1.65 0 0 0-.803-.404c-.242-.055-.717-.082-1.424-.082h-.779zm6.551 3.938c0-.547.135-1.076.404-1.588a2.78 2.78 0 0 1 1.143-1.172c.496-.27 1.049-.404 1.658-.404.941 0 1.713.307 2.314.92s.902 1.381.902 2.314c0 .941-.305 1.723-.914 2.344s-1.369.926-2.291.926a3.63 3.63 0 0 1-1.635-.387 2.66 2.66 0 0 1-1.178-1.131c-.27-.5-.404-1.107-.404-1.822zm1.688.088c0 .617.147 1.09.44 1.418s.654.492 1.084.492.789-.164 1.078-.492.439-.805.439-1.43c0-.609-.147-1.078-.439-1.406s-.648-.492-1.078-.492-.791.164-1.084.492-.44.801-.44 1.418zM95.029 14l-1.969-6.223h1.6l1.166 4.078 1.072-4.078h1.588l1.037 4.078 1.19-4.078h1.623L100.338 14h-1.582l-1.072-4.002L96.629 14h-1.6zm13.84 0h-1.646v-3.176c0-.672-.035-1.105-.106-1.301s-.185-.354-.346-.463-.345-.164-.568-.164c-.285 0-.541.078-.767.234s-.383.363-.469.621-.123.734-.123 1.43V14h-1.647V7.777h1.53v.914c.543-.703 1.226-1.055 2.05-1.055.364 0 .696.066.996.199s.528.295.68.498.264.434.322.691.094.627.094 1.107V14zm1.676 0V5.41h1.646V14h-1.646zm2.959-3.199c0-.547.135-1.076.404-1.588s.651-.902 1.143-1.172 1.049-.404 1.658-.404c.941 0 1.713.307 2.314.92s.903 1.381.903 2.314c0 .941-.305 1.723-.914 2.344s-1.369.926-2.291.926a3.63 3.63 0 0 1-1.635-.387 2.66 2.66 0 0 1-1.178-1.131c-.269-.5-.404-1.107-.404-1.822zm1.687.088c0 .617.147 1.09.44 1.418s.654.492 1.084.492.789-.164 1.078-.492.439-.805.439-1.43c0-.609-.146-1.078-.439-1.406s-.648-.492-1.078-.492-.791.164-1.084.492-.44.801-.44 1.418zm7.26-1.213l-1.494-.27c.168-.602.457-1.047.867-1.336s1.02-.434 1.828-.434c.735 0 1.282.088 1.641.264s.611.393.756.662.222.756.222 1.471l-.017 1.922c0 .547.025.951.076 1.213s.154.535.299.832H125a5.87 5.87 0 0 1-.158-.486l-.059-.193c-.281.274-.582.479-.902.615s-.662.205-1.026.205c-.64 0-1.146-.174-1.517-.521s-.551-.787-.551-1.318c0-.352.084-.664.252-.937s.402-.488.703-.633.742-.277 1.313-.387c.769-.145 1.302-.279 1.599-.404v-.164c0-.316-.078-.541-.234-.674s-.451-.205-.885-.205c-.293 0-.521.059-.685.176s-.297.314-.399.604zm2.203 1.336c-.211.07-.545.154-1.002.252s-.756.193-.896.287c-.215.152-.322.346-.322.58a.81.81 0 0 0 .257.598.9.9 0 0 0 .657.252c.297 0 .58-.098.849-.293.199-.148.33-.33.393-.545.043-.141.064-.408.064-.803v-.328zM133.607 14h-1.529v-.914c-.254.355-.555.621-.902.797s-.692.258-1.043.258c-.715 0-1.328-.287-1.84-.861s-.762-1.383-.762-2.414c0-1.055.248-1.855.744-2.402a2.42 2.42 0 0 1 1.881-.826c.696 0 1.297.289 1.805.867V5.41h1.646V14zm-4.394-3.246c0 .664.092 1.145.275 1.441.266.43.637.645 1.114.645.378 0 .701-.16.966-.48s.399-.807.399-1.447c0-.715-.129-1.229-.387-1.541a1.22 1.22 0 0 0-.99-.475c-.391 0-.719.156-.985.469-.261.309-.392.771-.392 1.389z" fill="#2a2a2a"/><path d="M148.984 46h-1.787v-3.826c0-.473-.084-.826-.252-1.06s-.435-.357-.802-.357c-.5 0-.862.168-1.084.504s-.334.885-.334 1.658V46h-1.787v-6.551h1.365l.24.838h.1a1.87 1.87 0 0 1 .82-.715c.351-.164.75-.246 1.195-.246.762 0 1.34.207 1.735.621s.591 1.004.591 1.781V46zm5.931-1.945c0 .672-.235 1.184-.704 1.535s-1.162.527-2.091.527c-.477 0-.883-.033-1.219-.1s-.651-.156-.944-.281V44.26c.333.156.706.287 1.12.392s.785.158 1.101.158c.649 0 .973-.187.973-.562 0-.141-.043-.254-.129-.34s-.234-.189-.445-.299l-.844-.393c-.504-.211-.875-.406-1.113-.586s-.407-.385-.516-.615-.158-.521-.158-.861c0-.582.224-1.031.674-1.348s1.093-.48 1.921-.48a5.44 5.44 0 0 1 2.303.516l-.539 1.289-.92-.346a2.88 2.88 0 0 0-.873-.135c-.527 0-.791.143-.791.428 0 .16.084.299.252.416s.545.291 1.119.521c.512.207.887.4 1.125.58s.414.387.528.621.17.514.17.838zM161.214 46l-.504-2.291-.68-2.895h-.041L158.794 46h-1.922l-1.863-6.551h1.781l.756 2.9c.121.52.244 1.236.369 2.15h.035c.016-.297.084-.768.205-1.412l.094-.498.809-3.141h1.968l.768 3.141.07.381.1.539.082.557.047.434h.035l.187-1.154.194-.996.785-2.9h1.752L163.159 46h-1.945zm7.125-5.402c-.379 0-.675.121-.89.363s-.338.578-.369 1.02h2.507c-.007-.441-.123-.781-.345-1.02s-.524-.363-.903-.363zm.252 5.519c-1.054 0-1.879-.291-2.472-.873s-.891-1.406-.891-2.473c0-1.098.273-1.945.82-2.543s1.311-.902 2.28-.902c.925 0 1.646.264 2.162.791s.773 1.256.773 2.186v.867h-4.224c.019.508.169.904.451 1.19s.675.428 1.183.428c.395 0 .768-.041 1.119-.123a5.6 5.6 0 0 0 1.102-.393v1.383c-.313.156-.647.272-1.002.346a6.45 6.45 0 0 1-1.301.117zm7.301-6.791a2.89 2.89 0 0 1 .604.053l-.135 1.676a2.04 2.04 0 0 0-.527-.059c-.57 0-1.016.147-1.336.439s-.475.703-.475 1.23V46h-1.787v-6.551h1.354l.263 1.102h.088a2.45 2.45 0 0 1 .821-.885 2.05 2.05 0 0 1 1.13-.34zm-31.384-5.271c0 .672-.235 1.184-.703 1.535s-1.162.527-2.092.527c-.477 0-.883-.033-1.219-.1s-.65-.156-.943-.281V34.26a6.25 6.25 0 0 0 1.119.392c.418.106.785.158 1.101.158.649 0 .973-.187.973-.562 0-.141-.043-.254-.129-.34s-.234-.189-.445-.299l-.844-.393c-.504-.211-.875-.406-1.113-.586s-.406-.385-.516-.615-.158-.521-.158-.861c0-.582.225-1.031.674-1.348s1.094-.48 1.922-.48a5.45 5.45 0 0 1 2.303.516l-.54 1.289-.919-.346c-.286-.09-.577-.135-.874-.135-.527 0-.791.143-.791.428 0 .16.084.299.252.416s.545.291 1.12.521c.511.207.886.4 1.125.58a1.71 1.71 0 0 1 .527.621c.113.234.17.514.17.838zm2.631-1.617l.779-.996 1.834-1.992h2.016l-2.602 2.842 2.76 3.709h-2.062l-1.887-2.654-.768.615V36h-1.787v-9.117h1.787v4.066l-.093 1.488h.023zM163.083 36h-2.209l-.673-.662a4.32 4.32 0 0 1-2.532.779c-.953 0-1.709-.219-2.267-.656s-.838-1.029-.838-1.775c0-.535.117-.99.351-1.365s.645-.732 1.219-1.061c-.293-.336-.506-.656-.638-.961a2.52 2.52 0 0 1-.2-1.008 1.75 1.75 0 0 1 .68-1.436c.457-.363 1.066-.545 1.828-.545.727 0 1.307.17 1.74.51s.657.787.657 1.354a2.18 2.18 0 0 1-.405 1.277c-.27.386-.705.748-1.306 1.096l1.664 1.623c.277-.457.517-1.045.72-1.764h1.864a8.57 8.57 0 0 1-.58 1.547c-.246.504-.526.943-.838 1.33L163.083 36zm-6.638-2.484c0 .336.125.604.375.803s.578.299.972.299c.493 0 .936-.119 1.331-.357l-1.946-1.934c-.226.172-.406.352-.539.539a1.12 1.12 0 0 0-.193.65zm2.103-4.154c0-.207-.07-.369-.211-.486s-.322-.182-.545-.182c-.261 0-.468.063-.621.188-.148.125-.222.303-.222.533 0 .344.185.723.556 1.137.336-.187.594-.371.774-.551s.269-.396.269-.639zM127.779 58l-.206-.677h-.035c-.235.296-.471.498-.708.606s-.542.158-.914.158c-.478 0-.851-.129-1.121-.387s-.399-.623-.399-1.094c0-.501.186-.879.558-1.134s.939-.394 1.7-.417l.84-.026v-.259c0-.311-.074-.542-.22-.694s-.368-.233-.672-.233a2.34 2.34 0 0 0-.717.11 5.45 5.45 0 0 0-.659.259l-.334-.738a3.53 3.53 0 0 1 .866-.312c.313-.073.609-.11.888-.11.618 0 1.083.135 1.397.404s.475.693.475 1.27V58h-.739zm-1.538-.703c.375 0 .676-.104.901-.312s.343-.505.343-.883v-.422l-.624.026c-.486.017-.841.1-1.064.246s-.329.365-.329.664c0 .217.064.385.193.505s.322.176.58.176zm7.994.703h-1.037v-2.988c0-.375-.076-.655-.229-.839s-.388-.277-.716-.277c-.437 0-.756.129-.958.387s-.303.69-.303 1.296V58h-1.033v-4.86h.809l.145.637h.052c.147-.231.355-.41.624-.536s.569-.189.897-.189c1.166 0 1.749.593 1.749 1.78V58zm3.076.088c-.606 0-1.08-.22-1.419-.659s-.51-1.056-.51-1.85.171-1.416.514-1.859.823-.668 1.433-.668c.638 0 1.125.236 1.459.708h.052c-.049-.349-.074-.624-.074-.826v-1.771h1.037V58h-.809l-.18-.637h-.048c-.331.483-.816.725-1.455.725zm.277-.835c.425 0 .734-.119.927-.356s.293-.628.299-1.165v-.145c0-.612-.1-1.047-.299-1.305s-.511-.387-.936-.387c-.363 0-.643.148-.839.444s-.295.712-.295 1.257c0 .539.096.951.286 1.235s.476.422.857.422zm6.157-4.201c.208 0 .379.015.514.044l-.101.962c-.147-.035-.299-.053-.457-.053-.413 0-.749.135-1.007.404s-.382.62-.382 1.05V58h-1.033v-4.86h.809l.136.857h.053a1.93 1.93 0 0 1 .628-.69 1.51 1.51 0 0 1 .84-.255zm5.73 2.509c0 .794-.204 1.414-.611 1.859s-.974.668-1.7.668c-.455 0-.856-.102-1.205-.308s-.616-.499-.804-.883-.281-.829-.281-1.336c0-.788.202-1.403.606-1.846s.975-.663 1.71-.663c.703 0 1.26.227 1.67.681s.615 1.061.615 1.828zm-3.537 0c0 1.122.414 1.683 1.243 1.683.82 0 1.231-.561 1.231-1.683 0-1.11-.413-1.666-1.24-1.666-.433 0-.748.144-.944.431s-.29.699-.29 1.235zM151.699 58h-1.033v-4.86h1.033V58zm-1.095-6.148c0-.185.05-.327.15-.426s.247-.149.435-.149c.182 0 .322.05.422.149s.154.242.154.426c0 .176-.052.315-.154.417s-.24.149-.422.149c-.188 0-.333-.05-.435-.149s-.15-.242-.15-.417zm4.215 6.236c-.607 0-1.08-.22-1.42-.659s-.509-1.056-.509-1.85.171-1.416.514-1.859.823-.668 1.432-.668c.639 0 1.125.236 1.459.708h.053c-.05-.349-.075-.624-.075-.826v-1.771h1.038V58h-.809l-.18-.637h-.049c-.331.483-.815.725-1.454.725zm.277-.835c.425 0 .734-.119.927-.356s.293-.628.299-1.165v-.145c0-.612-.1-1.047-.299-1.305s-.511-.387-.936-.387c-.363 0-.643.148-.839.444s-.295.712-.295 1.257c0 .539.095.951.286 1.235s.476.422.857.422zm9.07.747l-.207-.677h-.035c-.234.296-.47.498-.707.606s-.542.158-.914.158c-.478 0-.851-.129-1.121-.387s-.4-.623-.4-1.094c0-.501.186-.879.558-1.134s.939-.394 1.701-.417l.839-.026v-.259c0-.311-.073-.542-.219-.694s-.368-.233-.673-.233a2.33 2.33 0 0 0-.716.11c-.229.073-.448.16-.659.259l-.334-.738a3.49 3.49 0 0 1 .866-.312 4.1 4.1 0 0 1 .887-.11c.618 0 1.084.135 1.398.404s.474.693.474 1.27V58h-.738zm-1.538-.703c.375 0 .675-.104.901-.312s.343-.505.343-.883v-.422l-.624.026c-.487.017-.841.1-1.064.246s-.33.365-.33.664c0 .217.065.385.194.505s.322.176.58.176zm6.183.791c-.615 0-1.093-.221-1.433-.664h-.061l.061.747v1.991h-1.032V53.14h.835l.145.65h.052c.323-.492.806-.738 1.451-.738.606 0 1.078.22 1.415.659s.509 1.056.509 1.85-.172 1.414-.518 1.859-.818.668-1.424.668zm-.25-4.192c-.411 0-.711.12-.901.36s-.282.624-.282 1.151v.154c0 .592.094 1.021.282 1.288s.493.396.918.396a.93.93 0 0 0 .826-.439c.194-.293.29-.71.29-1.252s-.096-.956-.29-1.235a.96.96 0 0 0-.843-.422zm5.857 4.192c-.615 0-1.092-.221-1.432-.664h-.062l.062.747v1.991h-1.033V53.14h.835l.145.65h.053c.322-.492.806-.738 1.45-.738.606 0 1.078.22 1.415.659s.51 1.056.51 1.85-.173 1.414-.519 1.859-.817.668-1.424.668zm-.25-4.192c-.41 0-.71.12-.901.36s-.281.624-.281 1.151v.154c0 .592.094 1.021.281 1.288s.494.396.919.396a.93.93 0 0 0 .826-.439c.193-.293.29-.71.29-1.252s-.097-.956-.29-1.235a.96.96 0 0 0-.844-.422zM139.312 46l-2.488-6.357h-8.012L126.352 46H124l7.902-20.07h1.955L141.719 46h-2.407zm-3.212-8.449l-2.325-6.193a33.41 33.41 0 0 1-.929-2.885c-.201.875-.488 1.837-.862 2.885l-2.351 6.193h6.467z" fill="#fff"/></svg>