<svg width="66" height="89" viewBox="0 0 66 89" fill="none" xmlns="http://www.w3.org/2000/svg">
<path d="M2.6543 -0.000244141H50.0118C51.1099 -0.000244141 52.0001 0.889946 52.0001 1.98805V86.0814C52.0001 87.1795 51.1099 88.0697 50.0118 88.0697H2.6543C1.5562 88.0697 0.666008 87.1795 0.666008 86.0814V1.98805C0.666008 0.889946 1.5562 -0.000244141 2.6543 -0.000244141Z" fill="#6880E4"/>
<path d="M7.3878 6.09424H47.0913C48.012 6.09424 48.7583 6.84057 48.7583 7.76121V78.2632C48.7583 79.1838 48.012 79.9302 47.0913 79.9302H7.3878C6.46716 79.9302 5.72083 79.1838 5.72083 78.2632V7.76121C5.72083 6.84057 6.46716 6.09424 7.3878 6.09424Z" fill="white"/>
<mask id="mask0_201_32" style="mask-type:alpha" maskUnits="userSpaceOnUse" x="5" y="6" width="44" height="74">
<path d="M7.3878 6.09424H47.0913C48.012 6.09424 48.7583 6.84057 48.7583 7.76121V78.2632C48.7583 79.1838 48.012 79.9302 47.0913 79.9302H7.3878C6.46716 79.9302 5.72083 79.1838 5.72083 78.2632V7.76121C5.72083 6.84057 6.46716 6.09424 7.3878 6.09424Z" fill="white"/>
</mask>
<g mask="url(#mask0_201_32)">
<path d="M-1.03177 43.0123C-1.03177 43.0123 4.30792 34.3166 17.2627 41.9545C30.2181 49.5917 62.1583 69.2466 62.1583 69.2466V80.9832H-2.16344L-1.03243 43.0123H-1.03177Z" fill="#D4DFFF"/>
</g>
<path d="M18.4763 11.5356C17.8061 11.5356 17.2628 10.9923 17.2628 10.3221C17.2628 9.65189 17.8061 9.10858 18.4763 9.10858C19.1465 9.10858 19.6898 9.65189 19.6898 10.3221C19.6898 10.9923 19.1465 11.5356 18.4763 11.5356Z" fill="#EAF2FC"/>
<path d="M14.3306 11.5355C13.6604 11.5355 13.1171 10.9922 13.1171 10.322C13.1171 9.65183 13.6604 9.10852 14.3306 9.10852C15.0008 9.10852 15.5441 9.65183 15.5441 10.322C15.5441 10.9922 15.0008 11.5355 14.3306 11.5355Z" fill="#EAF2FC"/>
<path d="M10.1842 11.5355C9.514 11.5355 8.9707 10.9922 8.9707 10.322C8.9707 9.65183 9.514 9.10852 10.1842 9.10852C10.8544 9.10852 11.3977 9.65183 11.3977 10.322C11.3977 10.9922 10.8544 11.5355 10.1842 11.5355Z" fill="#EAF2FC"/>
<path d="M18.4763 15.9772C17.8061 15.9772 17.2628 15.4339 17.2628 14.7637C17.2628 14.0935 17.8061 13.5502 18.4763 13.5502C19.1465 13.5502 19.6898 14.0935 19.6898 14.7637C19.6898 15.4339 19.1465 15.9772 18.4763 15.9772Z" fill="#EAF2FC"/>
<path d="M14.3306 15.9774C13.6604 15.9774 13.1171 15.4341 13.1171 14.7639C13.1171 14.0937 13.6604 13.5504 14.3306 13.5504C15.0008 13.5504 15.5441 14.0937 15.5441 14.7639C15.5441 15.4341 15.0008 15.9774 14.3306 15.9774Z" fill="#EAF2FC"/>
<path d="M10.1842 15.9774C9.514 15.9774 8.9707 15.4341 8.9707 14.7639C8.9707 14.0937 9.514 13.5504 10.1842 13.5504C10.8544 13.5504 11.3977 14.0937 11.3977 14.7639C11.3977 15.4341 10.8544 15.9774 10.1842 15.9774Z" fill="#EAF2FC"/>
<path d="M18.0114 20.326C17.3922 20.0696 17.0982 19.3597 17.3546 18.7405C17.6111 18.1213 18.321 17.8273 18.9401 18.0838C19.5593 18.3402 19.8534 19.0501 19.5969 19.6693C19.3404 20.2885 18.6306 20.5825 18.0114 20.326Z" fill="#EAF2FC"/>
<path d="M13.866 20.3267C13.2468 20.0702 12.9528 19.3604 13.2092 18.7412C13.4657 18.122 14.1756 17.828 14.7948 18.0844C15.4139 18.3409 15.708 19.0508 15.4515 19.67C15.195 20.2891 14.4852 20.5832 13.866 20.3267Z" fill="#EAF2FC"/>
<path d="M9.00605 19.482C8.8521 18.8298 9.25607 18.1762 9.90835 18.0222C10.5606 17.8683 11.2142 18.2723 11.3682 18.9245C11.5221 19.5768 11.1181 20.2304 10.4659 20.3843C9.81358 20.5383 9.16 20.1343 9.00605 19.482Z" fill="#EAF2FC"/>
<path d="M18.4763 24.8598C17.8061 24.8598 17.2628 24.3165 17.2628 23.6463C17.2628 22.9761 17.8061 22.4328 18.4763 22.4328C19.1465 22.4328 19.6898 22.9761 19.6898 23.6463C19.6898 24.3165 19.1465 24.8598 18.4763 24.8598Z" fill="#EAF2FC"/>
<path d="M14.3306 24.8599C13.6604 24.8599 13.1171 24.3166 13.1171 23.6464C13.1171 22.9762 13.6604 22.4329 14.3306 22.4329C15.0008 22.4329 15.5441 22.9762 15.5441 23.6464C15.5441 24.3166 15.0008 24.8599 14.3306 24.8599Z" fill="#EAF2FC"/>
<path d="M10.1842 24.8599C9.514 24.8599 8.9707 24.3166 8.9707 23.6464C8.9707 22.9762 9.514 22.4329 10.1842 22.4329C10.8544 22.4329 11.3977 22.9762 11.3977 23.6464C11.3977 24.3166 10.8544 24.8599 10.1842 24.8599Z" fill="#EAF2FC"/>
<path d="M18.4763 29.3017C17.8061 29.3017 17.2628 28.7584 17.2628 28.0882C17.2628 27.418 17.8061 26.8747 18.4763 26.8747C19.1465 26.8747 19.6898 27.418 19.6898 28.0882C19.6898 28.7584 19.1465 29.3017 18.4763 29.3017Z" fill="#EAF2FC"/>
<path d="M14.3306 29.3017C13.6604 29.3017 13.1171 28.7584 13.1171 28.0882C13.1171 27.418 13.6604 26.8747 14.3306 26.8747C15.0008 26.8747 15.5441 27.418 15.5441 28.0882C15.5441 28.7584 15.0008 29.3017 14.3306 29.3017Z" fill="#EAF2FC"/>
<path d="M10.1842 29.3017C9.514 29.3017 8.9707 28.7584 8.9707 28.0882C8.9707 27.418 9.514 26.8747 10.1842 26.8747C10.8544 26.8747 11.3977 27.418 11.3977 28.0882C11.3977 28.7584 10.8544 29.3017 10.1842 29.3017Z" fill="#EAF2FC"/>
<path d="M19.0711 81.7326H28.5913C29.4371 81.7326 30.1227 82.4183 30.1227 83.2641V84.116C30.1227 84.9618 29.4371 85.6475 28.5913 85.6475H19.0711C18.2253 85.6475 17.5396 84.9618 17.5396 84.116V83.2641C17.5396 82.4183 18.2253 81.7326 19.0711 81.7326Z" fill="#1B3D9E"/>
<path d="M39.163 64.1439C39.163 64.1439 38.8678 83.2882 32.8218 88.0698H18.0115C18.0115 88.0698 15.5369 70.1114 22.3523 65.2762L39.1636 64.1439H39.163Z" fill="#1B3D9E"/>
<mask id="mask1_201_32" style="mask-type:alpha" maskUnits="userSpaceOnUse" x="17" y="64" width="23" height="25">
<path d="M39.163 64.1439C39.163 64.1439 38.8678 83.2882 32.8218 88.0698H18.0115C18.0115 88.0698 15.5369 70.1114 22.3523 65.2762L39.1636 64.1439H39.163Z" fill="white"/>
</mask>
<g mask="url(#mask1_201_32)">
<path d="M31.0626 89.1451C31.0626 88.8574 32.9335 70.797 33.725 70.0772C34.5166 69.3574 34.3006 89.0734 33.3655 89.2887C32.4304 89.5047 31.0632 89.1445 31.0632 89.1445L31.0626 89.1451Z" fill="#1C056D"/>
</g>
<path d="M31.9555 32.042C31.9555 32.042 42.8354 37.9975 46.2257 40.4366C52.3442 44.8378 45.4791 27.3886 46.5725 26.6426C47.666 25.8967 55.4937 25.7981 56.6562 27.9172C57.8181 30.0363 61.1594 51.7962 53.1613 51.2494C45.1632 50.7027 36.7914 46.8623 36.7914 46.8623C36.7914 46.8623 29.9692 35.4075 31.9555 32.042Z" fill="#F9C438"/>
<mask id="mask2_201_32" style="mask-type:alpha" maskUnits="userSpaceOnUse" x="31" y="26" width="28" height="26">
<path d="M31.9555 32.042C31.9555 32.042 42.8354 37.9975 46.2257 40.4366C52.3442 44.8378 45.4791 27.3886 46.5725 26.6426C47.666 25.8967 55.4937 25.7981 56.6562 27.9172C57.8181 30.0363 61.1594 51.7962 53.1613 51.2494C45.1632 50.7027 36.7914 46.8623 36.7914 46.8623C36.7914 46.8623 29.9692 35.4075 31.9555 32.042Z" fill="white"/>
</mask>
<g mask="url(#mask2_201_32)">
<path d="M45.7501 40.1045C45.7501 40.1045 51.3548 45.9118 51.3548 44.8613C51.3548 43.8108 48.6776 37.7084 48.6776 37.7084C48.6776 37.7084 47.888 40.7673 45.7508 40.1045" fill="#F6AB36"/>
<path d="M53.8201 26.1573C53.8201 26.1573 55.045 29.1364 54.2615 29.9205C53.478 30.7047 49.4625 31.5379 48.8239 31.1951C48.1846 30.8523 46.8618 26.1573 46.8618 26.1573C46.8618 26.1573 51.8607 25.4811 53.8208 26.1573H53.8201Z" fill="#F6AB36"/>
</g>
<path d="M23.6128 30.1796C23.6128 30.1796 15.0444 37.6927 15.5589 42.5299C16.0735 47.3672 20.7048 64.4522 22.3516 65.2753C23.9985 66.0984 37.4483 67.334 39.1629 64.1429C40.8775 60.9525 39.334 39.5448 37.0693 36.0452C34.8053 32.5455 30.1706 31.4145 30.1706 31.4145L23.6121 30.1789L23.6128 30.1796Z" fill="#F9C438"/>
<mask id="mask3_201_32" style="mask-type:alpha" maskUnits="userSpaceOnUse" x="15" y="30" width="25" height="37">
<path d="M23.6128 30.1796C23.6128 30.1796 15.0444 37.6927 15.5589 42.5299C16.0735 47.3672 20.7048 64.4522 22.3516 65.2753C23.9985 66.0984 37.4483 67.334 39.1629 64.1429C40.8775 60.9525 39.334 39.5448 37.0693 36.0452C34.8053 32.5455 30.1706 31.4145 30.1706 31.4145L23.6121 30.1789L23.6128 30.1796Z" fill="white"/>
</mask>
<g mask="url(#mask3_201_32)">
<path d="M40.2308 48.9421C40.2308 48.9421 31.0266 53.2447 17.0394 51.6502L17.3292 54.3314C17.3292 54.3314 36.1724 55.7301 41.0284 51.1893L40.2315 48.9414L40.2308 48.9421Z" fill="white"/>
<path d="M40.7327 54.3729C40.7327 54.3729 31.8028 57.6069 21.497 56.8401L22.0833 58.9257C22.0833 58.9257 35.725 60.1083 41.0875 56.3236L40.7333 54.3729H40.7327Z" fill="white"/>
</g>
<path d="M39.3951 47.9303C39.3951 47.9303 38.8779 42.4961 37.2941 38.3853C37.2941 38.3853 41.59 42.4189 42.2548 48.9419C42.2548 48.9419 40.8099 48.4133 39.3951 47.9303Z" fill="#F6AB36"/>
<path d="M31.1029 32.8569C31.1029 32.8569 31.1902 33.619 30.9205 33.6719C30.6508 33.7249 27.4202 33.5411 24.1996 32.0412L23.5489 32.4356C23.5489 32.4356 27.9843 34.7895 30.4737 34.4917C32.9631 34.1938 31.1029 32.8569 31.1029 32.8569Z" fill="white"/>
<path d="M28.834 13.088C29.6544 13.192 30.4829 13.2973 31.263 13.5716C32.0432 13.846 32.7831 14.3055 33.2486 14.9898C33.9248 15.9852 33.9322 17.294 34.4648 18.3727C35.1249 19.7096 36.5182 20.5582 37.2273 21.8696C37.623 22.6008 37.784 23.4668 37.6224 24.2825C37.4023 25.3968 36.6054 26.3326 35.6522 26.951C34.699 27.5695 33.5955 27.9083 32.4973 28.1988C30.2964 28.781 28.0512 29.1976 25.7878 29.4438C24.9507 27.5615 24.2973 25.6034 23.7445 23.6184C23.0623 21.168 22.6135 18.5015 23.5098 16.1207C23.7479 15.4888 24.0826 14.8831 24.5616 14.4068C25.6007 13.3717 27.379 12.9035 28.834 13.0873V13.088Z" fill="#1B3D9E"/>
<mask id="mask4_201_32" style="mask-type:alpha" maskUnits="userSpaceOnUse" x="23" y="13" width="15" height="17">
<path d="M28.834 13.088C29.6544 13.192 30.4829 13.2973 31.263 13.5716C32.0432 13.846 32.7831 14.3055 33.2486 14.9898C33.9248 15.9852 33.9322 17.294 34.4648 18.3727C35.1249 19.7096 36.5182 20.5582 37.2273 21.8696C37.623 22.6008 37.784 23.4668 37.6224 24.2825C37.4023 25.3968 36.6054 26.3326 35.6522 26.951C34.699 27.5695 33.5955 27.9083 32.4973 28.1988C30.2964 28.781 28.0512 29.1976 25.7878 29.4438C24.9507 27.5615 24.2973 25.6034 23.7445 23.6184C23.0623 21.168 22.6135 18.5015 23.5098 16.1207C23.7479 15.4888 24.0826 14.8831 24.5616 14.4068C25.6007 13.3717 27.379 12.9035 28.834 13.0873V13.088Z" fill="white"/>
</mask>
<g mask="url(#mask4_201_32)">
<path opacity="0.24" d="M33.026 16.2936C33.026 16.2936 37.7559 24.5372 34.809 26.8133C31.8621 29.0894 28.8287 26.3927 28.8287 26.3927L28.3833 15.9924L33.026 16.2936Z" fill="#1C056D"/>
</g>
<path d="M22.9894 16.5009C23.5837 15.3827 26.2818 13.709 28.7383 13.6339C30.1228 13.5909 31.3913 14.4093 31.9683 15.6691C33.2737 18.5201 36.1125 25.302 34.1242 26.4142C33.2388 26.9093 32.0742 26.9281 30.9003 26.696C31.0821 28.5655 31.127 32.903 31.0928 33.492C31.0439 34.3198 25.2715 32.8205 24.2002 32.0417C23.1289 31.2629 26.004 24.2354 26.004 24.2354C25.2259 23.1138 22.1629 18.0572 22.9894 16.5016V16.5009Z" fill="#FE8E9C"/>
<mask id="mask5_201_32" style="mask-type:alpha" maskUnits="userSpaceOnUse" x="22" y="13" width="13" height="21">
<path d="M22.9894 16.5009C23.5837 15.3827 26.2818 13.709 28.7383 13.6339C30.1228 13.5909 31.3913 14.4093 31.9683 15.6691C33.2737 18.5201 36.1125 25.302 34.1242 26.4142C33.2388 26.9093 32.0742 26.9281 30.9003 26.696C31.0821 28.5655 31.127 32.903 31.0928 33.492C31.0439 34.3198 25.2715 32.8205 24.2002 32.0417C23.1289 31.2629 26.004 24.2354 26.004 24.2354C25.2259 23.1138 22.1629 18.0572 22.9894 16.5016V16.5009Z" fill="white"/>
</mask>
<g mask="url(#mask5_201_32)">
<path d="M30.9003 26.696C30.9003 26.696 29.287 26.0453 27.8796 25.1658C27.8796 25.1658 29.0945 29.0626 31.5289 28.962L30.9003 26.696Z" fill="#E57492"/>
<path d="M33.6795 18.1766C33.5507 18.147 32.5492 18.3537 30.7226 16.851C30.7226 16.851 30.045 17.823 27.7763 16.4385L27.4228 14.5528L32.1071 13.9343L33.6795 18.1766Z" fill="#E57492"/>
</g>
<path d="M30.1704 18.4241C30.1704 18.4241 33.3876 20.1923 33.1542 20.6586C32.9208 21.1248 30.6366 20.4835 30.4032 20.5995C30.1697 20.7162 30.8667 21.2663 31.18 21.2448C31.4939 21.2241 33.6788 21.2797 33.6788 20.6941C33.6788 20.1085 32.6551 19.2727 30.1697 18.4234L30.1704 18.4241Z" fill="#E57492"/>
<path d="M33.1509 22.4632C33.1509 22.4632 31.659 23.2923 29.8907 22.4632C29.8907 22.4632 30.8963 23.841 31.9723 23.7713C33.3904 23.6794 33.1509 22.4632 33.1509 22.4632Z" fill="white"/>
<path d="M28.1607 18.0976C27.8065 18.869 27.1142 19.4453 26.7547 20.214C26.1261 21.5597 26.6413 23.126 27.0022 24.5669C27.5254 26.6559 27.6643 29.0111 26.5058 30.8263C25.7558 32.0009 24.5302 32.8173 23.2154 33.2781C21.9 33.739 20.4926 33.8711 19.0993 33.904C16.0471 33.9758 12.9849 33.5834 10.0494 32.7455C10.6759 32.5054 11.3353 32.2417 11.7425 31.7091C12.2651 31.0255 12.2409 30.0884 12.2617 29.2284C12.2959 27.7983 12.5253 26.3587 13.0888 25.0439C13.653 23.7291 14.568 22.5431 15.7868 21.7938C16.6965 21.2343 17.7832 20.9029 18.4775 20.0919C19.2536 19.1857 19.3556 17.9064 19.6273 16.7446C19.8533 15.7799 20.2189 14.8482 20.7106 13.9882C21.048 13.3979 21.4727 12.8156 22.0898 12.5312C22.6741 12.2615 23.3523 12.295 23.9849 12.4091C26.1389 12.7968 28.0654 14.0714 28.3861 16.4092C28.4646 16.9807 28.4022 17.5703 28.16 18.0976H28.1607Z" fill="#1B3D9E"/>
<mask id="mask6_201_32" style="mask-type:alpha" maskUnits="userSpaceOnUse" x="10" y="12" width="19" height="22">
<path d="M28.1607 18.0976C27.8065 18.869 27.1142 19.4453 26.7547 20.214C26.1261 21.5597 26.6413 23.126 27.0022 24.5669C27.5254 26.6559 27.6643 29.0111 26.5058 30.8263C25.7558 32.0009 24.5302 32.8173 23.2154 33.2781C21.9 33.739 20.4926 33.8711 19.0993 33.904C16.0471 33.9758 12.9849 33.5834 10.0494 32.7455C10.6759 32.5054 11.3353 32.2417 11.7425 31.7091C12.2651 31.0255 12.2409 30.0884 12.2617 29.2284C12.2959 27.7983 12.5253 26.3587 13.0888 25.0439C13.653 23.7291 14.568 22.5431 15.7868 21.7938C16.6965 21.2343 17.7832 20.9029 18.4775 20.0919C19.2536 19.1857 19.3556 17.9064 19.6273 16.7446C19.8533 15.7799 20.2189 14.8482 20.7106 13.9882C21.048 13.3979 21.4727 12.8156 22.0898 12.5312C22.6741 12.2615 23.3523 12.295 23.9849 12.4091C26.1389 12.7968 28.0654 14.0714 28.3861 16.4092C28.4646 16.9807 28.4022 17.5703 28.16 18.0976H28.1607Z" fill="white"/>
</mask>
<g mask="url(#mask6_201_32)">
<path opacity="0.24" d="M11.7954 29.9127C11.7954 29.9127 21.5524 34.6345 27.0249 31.4166C27.0249 31.4166 22.6378 36.869 15.0542 35.6159C7.47065 34.3622 7.28282 33.2801 7.28282 33.2801L11.7954 29.9133V29.9127Z" fill="#1C056D"/>
</g>
<path d="M29.8149 16.1636C29.8746 16.1589 29.9357 16.1528 29.988 16.124C30.1255 16.0482 30.1429 15.855 30.104 15.7034C30.0651 15.5518 29.9866 15.4049 29.9947 15.2486C30.8272 16.336 32.2184 16.8485 33.5728 17.0517C33.6419 17.0618 33.7238 17.0678 33.77 17.0148C33.7902 16.992 33.7996 16.9618 33.8076 16.9323C34.2175 15.5109 33.874 13.8949 32.9228 12.7625C32.4559 12.2071 31.8609 11.7704 31.2303 11.4109C29.4688 10.406 27.2859 9.98537 25.3822 10.6844C24.7684 10.9098 24.1734 11.2666 23.8272 11.8221C23.6998 12.0267 23.6079 12.2614 23.6119 12.5029C23.6186 12.8826 23.8601 13.2207 24.1452 13.4709C24.4954 13.7788 24.918 13.9895 25.354 14.1484C25.572 14.2283 25.7954 14.288 26.0161 14.3584C26.1536 14.402 26.2703 14.461 26.3676 14.569C26.6399 14.8716 26.8908 15.1667 27.2236 15.4076C27.5757 15.6625 27.9688 15.8604 28.3834 15.9912C28.7973 16.1213 29.2326 16.185 29.6667 16.1703C29.7163 16.1689 29.7653 16.1663 29.8149 16.1622V16.1636Z" fill="#1B3D9E"/>
<path d="M49.0379 20.3242C49.0379 20.3242 54.0703 27.73 52.8756 28.5712C51.6802 29.4124 50.1004 29.6827 49.8616 29.2178C49.6221 28.7529 46.5592 20.6046 46.5592 20.6046L49.0379 20.3242Z" fill="#1B3D9E"/>
<mask id="mask7_201_32" style="mask-type:alpha" maskUnits="userSpaceOnUse" x="46" y="20" width="8" height="10">
<path d="M49.0379 20.3242C49.0379 20.3242 54.0703 27.73 52.8756 28.5712C51.6802 29.4124 50.1004 29.6827 49.8616 29.2178C49.6221 28.7529 46.5592 20.6046 46.5592 20.6046L49.0379 20.3242Z" fill="white"/>
</mask>
<g mask="url(#mask7_201_32)">
<path d="M50.8906 22.5276C50.8906 22.5276 46.5404 22.961 46.3801 22.5974C46.2197 22.2331 45.8032 20.8425 45.8032 20.8425C45.8032 20.8425 50.4291 19.5331 50.5955 19.9604C50.7618 20.3877 50.8906 22.5269 50.8906 22.5269V22.5276Z" fill="#1C056D"/>
</g>
<path d="M42.3057 20.2866C42.1574 19.817 42.3385 19.3058 42.7491 19.0342C46.0106 16.8735 59.7053 7.85235 60.5257 8.1408C61.4574 8.46883 65.3958 19.6547 64.621 21.1412C63.9334 22.4607 47.0644 21.3277 43.2797 21.056C42.8276 21.0238 42.4418 20.7186 42.3057 20.2866Z" fill="#68A9FD"/>
<mask id="mask8_201_32" style="mask-type:alpha" maskUnits="userSpaceOnUse" x="42" y="8" width="23" height="14">
<path d="M42.3057 20.2866C42.1574 19.817 42.3385 19.3058 42.7491 19.0342C46.0106 16.8735 59.7053 7.85235 60.5257 8.1408C61.4574 8.46883 65.3958 19.6547 64.621 21.1412C63.9334 22.4607 47.0644 21.3277 43.2797 21.056C42.8276 21.0238 42.4418 20.7186 42.3057 20.2866Z" fill="white"/>
</mask>
<g mask="url(#mask8_201_32)">
<path d="M45.9476 15.9318C45.9476 15.9318 45.0098 19.1416 47.6777 22.7358C47.6777 22.7358 41.3512 22.1442 41.1285 21.4385C40.9058 20.7328 40.4027 20.0814 40.7193 19.5978C41.0359 19.1141 45.9476 15.9318 45.9476 15.9318Z" fill="#1B3D9E"/>
<path opacity="0.24" d="M64.7216 17.6302C64.7216 17.6302 60.2768 16.6958 56.1882 18.9739C52.0996 21.2519 44.0981 20.0834 44.0981 20.0834L44.624 21.7678C44.624 21.7678 60.9778 23.7011 63.3726 23.1188C65.7674 22.5366 65.5997 19.0336 64.7223 17.6302" fill="#1C056D"/>
</g>
<path d="M61.1046 15.1466C59.9599 11.5138 59.6613 8.37049 60.4376 8.12587C61.2139 7.88124 62.7712 10.6279 63.9159 14.2607C65.0607 17.8936 65.3593 21.0369 64.583 21.2815C63.8067 21.5261 62.2494 18.7794 61.1046 15.1466Z" fill="#1B3D9E"/>
<mask id="mask9_201_32" style="mask-type:alpha" maskUnits="userSpaceOnUse" x="60" y="8" width="6" height="14">
<path d="M61.1046 15.1466C59.9599 11.5138 59.6613 8.37049 60.4376 8.12587C61.2139 7.88124 62.7712 10.6279 63.9159 14.2607C65.0607 17.8936 65.3593 21.0369 64.583 21.2815C63.8067 21.5261 62.2494 18.7794 61.1046 15.1466Z" fill="white"/>
</mask>
<g mask="url(#mask9_201_32)">
<path d="M60.3685 14.4151C60.3685 14.4151 62.7513 12.7642 63.245 14.2863C63.7387 15.8084 63.7119 16.343 60.7127 16.6214L60.3685 14.4144V14.4151Z" fill="white"/>
<path d="M61.256 8.37748C61.256 8.37748 60.5014 8.71557 60.7321 10.5476C60.9314 12.1327 62.925 20.2415 65.1998 21.0847C65.1998 21.0847 64.7503 22.0655 64.0775 21.9742C63.404 21.883 61.2339 18.9656 60.7965 17.094C60.3585 15.2231 58.7526 10.0049 58.8243 9.14825C58.8954 8.29162 60.7952 7.54768 61.2567 8.37748H61.256Z" fill="#1C056D"/>
</g>
<path d="M21.372 63.7734C21.372 63.7734 25.2044 65.749 25.6874 65.5773C26.1704 65.4055 28.0909 64.4443 28.8717 63.4883C28.8717 63.4883 29.1796 65.6457 27.2557 66.073C27.2557 66.073 23.7796 65.9489 22.3507 65.2761C22.3507 65.2761 21.7457 65.0493 21.3713 63.7734H21.372Z" fill="#F6AB36"/>
<path d="M28.2338 60.2612C28.2338 60.2612 31.8025 61.5049 32.8067 62.2421C32.8074 62.2421 37.8868 65.5191 37.159 65.7921C36.7585 65.9424 35.2827 65.2293 34.0363 64.5585C34.7179 66.1912 35.3974 68.1252 35.0761 68.0534C34.5616 67.9387 32.0782 64.2526 32.0782 64.2526C32.0782 64.2526 33.7425 68.4921 33.4782 68.4988C33.2133 68.5062 31.549 67.1371 31.0988 64.649C31.0988 64.649 31.602 68.1426 31.2578 68.2225C30.9137 68.3016 29.8022 64.7805 29.8022 64.7805C29.8022 64.7805 26.7969 63.6099 26.7285 63.0109C26.6601 62.4125 28.2338 60.2606 28.2338 60.2606V60.2612Z" fill="#FE8E9C"/>
<mask id="mask10_201_32" style="mask-type:alpha" maskUnits="userSpaceOnUse" x="26" y="60" width="12" height="9">
<path d="M28.2338 60.2612C28.2338 60.2612 31.8025 61.5049 32.8067 62.2421C32.8074 62.2421 37.8868 65.5191 37.159 65.7921C36.7585 65.9424 35.2827 65.2293 34.0363 64.5585C34.7179 66.1912 35.3974 68.1252 35.0761 68.0534C34.5616 67.9387 32.0782 64.2526 32.0782 64.2526C32.0782 64.2526 33.7425 68.4921 33.4782 68.4988C33.2133 68.5062 31.549 67.1371 31.0988 64.649C31.0988 64.649 31.602 68.1426 31.2578 68.2225C30.9137 68.3016 29.8022 64.7805 29.8022 64.7805C29.8022 64.7805 26.7969 63.6099 26.7285 63.0109C26.6601 62.4125 28.2338 60.2606 28.2338 60.2606V60.2612Z" fill="white"/>
</mask>
<g mask="url(#mask10_201_32)">
<path d="M32.5783 61.7756C32.6091 62.0539 30.1935 64.4769 28.3676 64.4769C26.5416 64.4769 26.3739 63.2285 26.3739 63.2285L29.1316 59.6142C29.1316 59.6142 32.5226 61.2724 32.5783 61.7756Z" fill="#E57492"/>
<path d="M37.1591 65.7921C37.1591 65.7921 33.8708 63.8736 33.6259 63.7334C33.3811 63.5932 34.2558 64.8885 34.2558 64.8885C34.2558 64.8885 37.2014 66.2416 37.1591 65.7928" fill="#E57492"/>
</g>
<path d="M17.6416 36.9116C17.6416 36.9116 7.45598 50.2071 8.19186 53.7222C8.92775 57.2379 24.38 65.9042 25.6881 65.5768C26.9961 65.2495 30.642 62.7916 30.2905 60.2599C29.939 57.7283 18.8203 49.9616 18.8203 49.9616C18.8203 49.9616 24.7234 46.1192 24.4699 43.012C24.2163 39.9054 17.6416 36.9116 17.6416 36.9116Z" fill="#F9C438"/>
<path d="M29.8909 59.3671C29.8909 59.3671 22.5495 52.3685 18.8204 49.9616C18.8204 49.9616 22.9466 48.2054 24.47 43.012C24.47 43.012 24.1688 49.753 20.9529 50.1816C20.9529 50.1816 29.9304 55.901 29.8909 59.3664V59.3671Z" fill="#F6AB36"/>
<path d="M18.8204 36.6493C18.8204 36.6493 23.0412 38.3726 24.1534 41.9541C24.1534 41.9541 24.7887 38.3216 18.8204 36.6493Z" fill="#F6AB36"/>
<path d="M47.3648 22.7425C47.3648 22.7425 50.4016 23.7581 50.2634 24.0627C50.1252 24.3672 47.8968 24.1479 47.8968 24.1479L48.681 26.2093C48.681 26.2093 47.7056 26.2797 47.285 26.3931C47.285 26.3931 45.6851 23.8413 45.8233 23.3435C45.9615 22.8458 47.3655 22.7432 47.3655 22.7432L47.3648 22.7425Z" fill="#FE8E9C"/>
<mask id="mask11_201_32" style="mask-type:alpha" maskUnits="userSpaceOnUse" x="45" y="22" width="6" height="5">
<path d="M47.3648 22.7425C47.3648 22.7425 50.4016 23.7581 50.2634 24.0627C50.1252 24.3672 47.8968 24.1479 47.8968 24.1479L48.681 26.2093C48.681 26.2093 47.7056 26.2797 47.285 26.3931C47.285 26.3931 45.6851 23.8413 45.8233 23.3435C45.9615 22.8458 47.3655 22.7432 47.3655 22.7432L47.3648 22.7425Z" fill="white"/>
</mask>
<g mask="url(#mask11_201_32)">
<path d="M47.864 26.6739C47.864 26.6739 46.947 23.9786 47.0825 24.0014C47.2187 24.0242 48.1236 24.1677 48.1236 24.1677L48.9393 26.3928L47.8633 26.6739H47.864Z" fill="#E57492"/>
<path d="M49.7618 24.2477C49.7618 24.2477 48.2189 24.0197 48.0411 23.7165C47.8634 23.4126 49.2506 23.3133 49.2506 23.3133C49.2506 23.3133 50.4574 24.027 50.2676 24.1444C50.0777 24.2618 49.7611 24.2477 49.7611 24.2477H49.7618Z" fill="#E57492"/>
</g>
<path d="M51.4019 23.3946C51.2932 23.3362 51.1698 23.3114 51.047 23.3134C50.5124 23.3208 48.6435 23.3644 48.343 23.6166C47.9922 23.9118 51.1618 24.3726 51.5012 24.3035C51.8031 24.2425 51.8936 23.6595 51.4019 23.3946Z" fill="#FE8E9C"/>
<path d="M48.8499 24.5027C49.1498 24.2498 51.0193 24.2068 51.554 24.1995C51.6774 24.1974 51.8008 24.2223 51.9088 24.2806C52.2966 24.4892 52.3214 24.8951 52.1671 25.0883C52.6159 25.362 52.5233 25.9154 52.2295 25.9744C51.89 26.0429 49.0391 25.5156 49.3899 25.2204C49.5516 25.0843 49.8494 25.0762 50.4679 25.0339C49.5684 24.887 48.652 24.6684 48.8492 24.5027H48.8499Z" fill="#FE8E9C"/>
<path d="M50.4689 25.0339C50.4689 25.0339 51.6428 25.2747 52.1674 25.0876C52.1674 25.0876 50.6661 24.9588 50.0322 24.8266C49.3982 24.6945 48.8502 24.502 48.8502 24.502C48.8502 24.502 48.7066 24.5798 49.0514 24.7092C49.3962 24.8387 50.4682 25.0332 50.4682 25.0332L50.4689 25.0339Z" fill="#E57492"/>
</svg>
